<svg width="20" height="20" viewBox="0 0 20 20" fill="none" xmlns="http://www.w3.org/2000/svg">
<rect x="0.5" y="19.5" width="19" height="19" transform="rotate(-90 0.5 19.5)" stroke="black"/>
<path opacity="0.4" d="M1.66699 6.50834L1.66699 13.4917C1.66699 16.525 3.47533 18.3333 6.50866 18.3333L13.4837 18.3333C16.5253 18.3333 18.3337 16.525 18.3337 13.4917L18.3337 6.51667C18.3337 3.48333 16.5253 1.675 13.492 1.675L6.50866 1.675C3.47532 1.66667 1.66699 3.475 1.66699 6.50834Z" fill="white"/>
<path d="M13.5668 8.95C13.5668 9.10833 13.5085 9.26666 13.3835 9.39166L10.4418 12.3333C10.2001 12.575 9.80013 12.575 9.55846 12.3333L6.6168 9.39166C6.37513 9.15 6.37513 8.75 6.6168 8.50833C6.85846 8.26666 7.25846 8.26666 7.50013 8.50833L10.0001 11.0083L12.5001 8.50833C12.7418 8.26666 13.1418 8.26666 13.3835 8.50833C13.5085 8.625 13.5668 8.78333 13.5668 8.95Z" fill="white"/>
</svg>
